<?xml version="1.0" encoding="utf-8"?>
<!-- Generator: Adobe Illustrator 21.0.1, SVG Export Plug-In . SVG Version: 6.00 Build 0)  -->
<svg version="1.1" id="_1" xmlns="http://www.w3.org/2000/svg" xmlns:xlink="http://www.w3.org/1999/xlink" x="0px" y="0px"
	 viewBox="0 0 1920 1200" style="enable-background:new 0 0 1920 1200;" xml:space="preserve">
<style type="text/css">
	.st0{fill:#0D5C63;}
	.st1{fill:#E67832;}
	.st2{fill:none;stroke:#AC4417;stroke-width:5;}
	.st3{fill:none;stroke:#000000;stroke-width:10;}
	.st4{fill:none;stroke:#000000;stroke-width:5;}
</style>
<path id="shape" class="st0" d="M527,347L960,97l433,250v500l-433,250L527,847V347z"/>
<path id="fill" class="st1" d="M960,281c0,0-48.6-6.6-114,93C732.8,546.5,650.1,917.5,960,919 M959,281.1c0,0,48.7-6.6,114.1,93
	C1186.3,546.6,1269.1,917.5,959,919"/>
<g id="lines">
	<path id="_1-2" class="st2" d="M959.5,283v634"/>
	<path id="_2" class="st2" d="M959.7,281.1c0,0-26.1-6.6-61.1,92.7c-60.7,171.9-105,541.7,61.1,543.2 M959.2,281.2
		c0,0,26.1-6.6,61.1,92.7c60.7,171.9,105.1,541.7-61.1,543.1"/>
	<path id="_3" class="st2" d="M959.9,281.1c0,0-43.4-6.6-101.8,92.8C756.9,546.2,683,916.5,959.9,918 M959,281.2
		c0,0,43.5-6.6,101.9,92.8c101.2,172.2,175.2,542.5-101.9,544"/>
</g>
<g id="fc">
	<path id="l" class="st3" d="M813,612l31.5-32l31.5,32"/>
	<path id="r" class="st3" d="M1044,612l31.5-32l31.5,32"/>
	<path id="mouth" d="M959.1,646H901c0,0,1,37,58.1,37s58.9-37,58.9-37H959.1z"/>
</g>
<path id="cntr" class="st4" d="M960,281c0,0-48.6-6.6-114,93C732.8,546.5,650.1,917.5,960,919 M959,281.1c0,0,48.7-6.6,114.1,93
	C1186.3,546.6,1269.1,917.5,959,919"/>
</svg>
