<svg version="1.1" id="_1" xmlns="http://www.w3.org/2000/svg" x="0" y="0" viewBox="0 0 1920 1200" xml:space="preserve"><style>.st2,.st3{fill:none;stroke:#ac4417;stroke-width:5}.st3{stroke:#000;stroke-width:10}</style><path id="shape" d="M527 347L960 97l433 250v500l-433 250-433-250V347z" fill="#0d5c63"/><path id="fill" d="M960 281s-48.6-6.6-114 93C732.8 546.5 650.1 917.5 960 919m-1-637.9s48.7-6.6 114.1 93c113.2 172.5 196 543.4-114.1 544.9" fill="#e67832"/><g id="lines"><path id="_1-2" class="st2" d="M959.5 283v634"/><path id="_2" class="st2" d="M959.7 281.1s-26.1-6.6-61.1 92.7c-60.7 171.9-105 541.7 61.1 543.2m-.5-635.8s26.1-6.6 61.1 92.7c60.7 171.9 105.1 541.7-61.1 543.1"/><path id="_3" class="st2" d="M959.9 281.1s-43.4-6.6-101.8 92.8C756.9 546.2 683 916.5 959.9 918m-.9-636.8s43.5-6.6 101.9 92.8c101.2 172.2 175.2 542.5-101.9 544"/></g><g id="fc"><path id="l" class="st3" d="M813 612l31.5-32 31.5 32"/><path id="r" class="st3" d="M1044 612l31.5-32 31.5 32"/><path id="mouth" d="M959.1 646H901s1 37 58.1 37 58.9-37 58.9-37h-58.9z"/></g><path id="cntr" d="M960 281s-48.6-6.6-114 93C732.8 546.5 650.1 917.5 960 919m-1-637.9s48.7-6.6 114.1 93c113.2 172.5 196 543.4-114.1 544.9" fill="none" stroke="#000" stroke-width="5"/></svg>